<mxfile host="app.diagrams.net" agent="Mozilla/5.0 (iPhone; CPU iPhone OS 17_5_1 like Mac OS X) AppleWebKit/605.1.15 (KHTML, like Gecko) Version/17.5 Mobile/15E148 Safari/604.1" version="24.7.7">
  <diagram name="ページ1" id="2bz06DOQqjxcS4X_Hx0f">
    <mxGraphModel dx="732" dy="2496" grid="0" gridSize="10" guides="1" tooltips="1" connect="1" arrows="1" fold="1" page="0" pageScale="1" pageWidth="827" pageHeight="1169" math="0" shadow="0">
      <root>
        <mxCell id="0" />
        <mxCell id="1" parent="0" />
        <mxCell id="OsVPCbcsclZ9nk15sfq9-4" value="Raspberry pi" style="rounded=0;whiteSpace=wrap;html=1;direction=east;" vertex="1" parent="1">
          <mxGeometry x="404" y="-295.5" width="120" height="60" as="geometry" />
        </mxCell>
        <mxCell id="OsVPCbcsclZ9nk15sfq9-5" value="AWS Cloud" style="points=[[0,0],[0.25,0],[0.5,0],[0.75,0],[1,0],[1,0.25],[1,0.5],[1,0.75],[1,1],[0.75,1],[0.5,1],[0.25,1],[0,1],[0,0.75],[0,0.5],[0,0.25]];outlineConnect=0;gradientColor=none;html=1;whiteSpace=wrap;fontSize=12;fontStyle=0;container=1;pointerEvents=0;collapsible=0;recursiveResize=0;shape=mxgraph.aws4.group;grIcon=mxgraph.aws4.group_aws_cloud_alt;strokeColor=#232F3E;fillColor=none;verticalAlign=top;align=left;spacingLeft=30;fontColor=#232F3E;dashed=0;" vertex="1" parent="1">
          <mxGeometry x="624" y="-402.5" width="554" height="285" as="geometry" />
        </mxCell>
        <mxCell id="OsVPCbcsclZ9nk15sfq9-8" value="" style="sketch=0;points=[[0,0,0],[0.25,0,0],[0.5,0,0],[0.75,0,0],[1,0,0],[0,1,0],[0.25,1,0],[0.5,1,0],[0.75,1,0],[1,1,0],[0,0.25,0],[0,0.5,0],[0,0.75,0],[1,0.25,0],[1,0.5,0],[1,0.75,0]];outlineConnect=0;fontColor=#232F3E;fillColor=#8C4FFF;strokeColor=#ffffff;dashed=0;verticalLabelPosition=bottom;verticalAlign=top;align=center;html=1;fontSize=12;fontStyle=0;aspect=fixed;shape=mxgraph.aws4.resourceIcon;resIcon=mxgraph.aws4.api_gateway;" vertex="1" parent="OsVPCbcsclZ9nk15sfq9-5">
          <mxGeometry x="66" y="98" width="78" height="78" as="geometry" />
        </mxCell>
        <mxCell id="OsVPCbcsclZ9nk15sfq9-9" value="" style="sketch=0;points=[[0,0,0],[0.25,0,0],[0.5,0,0],[0.75,0,0],[1,0,0],[0,1,0],[0.25,1,0],[0.5,1,0],[0.75,1,0],[1,1,0],[0,0.25,0],[0,0.5,0],[0,0.75,0],[1,0.25,0],[1,0.5,0],[1,0.75,0]];outlineConnect=0;fontColor=#232F3E;fillColor=#ED7100;strokeColor=#ffffff;dashed=0;verticalLabelPosition=bottom;verticalAlign=top;align=center;html=1;fontSize=12;fontStyle=0;aspect=fixed;shape=mxgraph.aws4.resourceIcon;resIcon=mxgraph.aws4.lambda;" vertex="1" parent="OsVPCbcsclZ9nk15sfq9-5">
          <mxGeometry x="230" y="98" width="78" height="78" as="geometry" />
        </mxCell>
        <mxCell id="OsVPCbcsclZ9nk15sfq9-10" value="" style="sketch=0;points=[[0,0,0],[0.25,0,0],[0.5,0,0],[0.75,0,0],[1,0,0],[0,1,0],[0.25,1,0],[0.5,1,0],[0.75,1,0],[1,1,0],[0,0.25,0],[0,0.5,0],[0,0.75,0],[1,0.25,0],[1,0.5,0],[1,0.75,0]];outlineConnect=0;fontColor=#232F3E;fillColor=#7AA116;strokeColor=#ffffff;dashed=0;verticalLabelPosition=bottom;verticalAlign=top;align=center;html=1;fontSize=12;fontStyle=0;aspect=fixed;shape=mxgraph.aws4.resourceIcon;resIcon=mxgraph.aws4.s3;" vertex="1" parent="OsVPCbcsclZ9nk15sfq9-5">
          <mxGeometry x="394" y="98" width="78" height="78" as="geometry" />
        </mxCell>
        <mxCell id="OsVPCbcsclZ9nk15sfq9-12" value="" style="edgeStyle=orthogonalEdgeStyle;html=1;endArrow=block;elbow=vertical;startArrow=none;endFill=1;strokeColor=#545B64;rounded=0;fontSize=12;startSize=8;endSize=8;curved=1;exitX=1;exitY=0.5;exitDx=0;exitDy=0;entryX=0;entryY=0.5;entryDx=0;entryDy=0;entryPerimeter=0;" edge="1" parent="1" source="OsVPCbcsclZ9nk15sfq9-4" target="OsVPCbcsclZ9nk15sfq9-8">
          <mxGeometry width="100" relative="1" as="geometry">
            <mxPoint x="524" y="-229" as="sourcePoint" />
            <mxPoint x="624" y="-229" as="targetPoint" />
          </mxGeometry>
        </mxCell>
        <mxCell id="OsVPCbcsclZ9nk15sfq9-13" value="" style="html=1;shadow=0;dashed=0;align=center;verticalAlign=middle;shape=mxgraph.arrows2.arrow;dy=0.49;dx=23.5;notch=0;" vertex="1" parent="1">
          <mxGeometry x="354" y="-290.75" width="45" height="50.5" as="geometry" />
        </mxCell>
        <mxCell id="OsVPCbcsclZ9nk15sfq9-15" value="検知" style="shape=callout;whiteSpace=wrap;html=1;perimeter=calloutPerimeter;size=29;position=0.48;" vertex="1" parent="1">
          <mxGeometry x="325" y="-369" width="120" height="80" as="geometry" />
        </mxCell>
      </root>
    </mxGraphModel>
  </diagram>
</mxfile>
